<svg width="433" height="291" viewBox="0 0 433 291" fill="none" xmlns="http://www.w3.org/2000/svg">
<circle cx="425.5" cy="283.5" r="7.5" transform="rotate(-180 425.5 283.5)" fill="#323238"/>
<circle cx="403.5" cy="283.5" r="7.5" transform="rotate(-180 403.5 283.5)" fill="#323238"/>
<circle cx="381.5" cy="283.5" r="7.5" transform="rotate(-180 381.5 283.5)" fill="#323238"/>
<circle cx="359.5" cy="283.5" r="7.5" transform="rotate(-180 359.5 283.5)" fill="#323238"/>
<circle cx="337.5" cy="283.5" r="7.5" transform="rotate(-180 337.5 283.5)" fill="#323238"/>
<circle cx="315.5" cy="283.5" r="7.5" transform="rotate(-180 315.5 283.5)" fill="#323238"/>
<circle cx="293.5" cy="283.5" r="7.5" transform="rotate(-180 293.5 283.5)" fill="#323238"/>
<circle cx="271.5" cy="283.5" r="7.5" transform="rotate(-180 271.5 283.5)" fill="#323238"/>
<circle cx="425.5" cy="260.5" r="7.5" transform="rotate(-180 425.5 260.5)" fill="#323238"/>
<circle cx="403.5" cy="260.5" r="7.5" transform="rotate(-180 403.5 260.5)" fill="#323238"/>
<circle cx="381.5" cy="260.5" r="7.5" transform="rotate(-180 381.5 260.5)" fill="#323238"/>
<circle cx="359.5" cy="260.5" r="7.5" transform="rotate(-180 359.5 260.5)" fill="#323238"/>
<circle cx="337.5" cy="260.5" r="7.5" transform="rotate(-180 337.5 260.5)" fill="#323238"/>
<circle cx="315.5" cy="260.5" r="7.5" transform="rotate(-180 315.5 260.5)" fill="#323238"/>
<circle cx="293.5" cy="260.5" r="7.5" transform="rotate(-180 293.5 260.5)" fill="#323238"/>
<circle cx="271.5" cy="260.5" r="7.5" transform="rotate(-180 271.5 260.5)" fill="#323238"/>
<circle cx="425.5" cy="237.5" r="7.5" transform="rotate(-180 425.5 237.5)" fill="#323238"/>
<circle cx="403.5" cy="237.5" r="7.5" transform="rotate(-180 403.5 237.5)" fill="#323238"/>
<circle cx="381.5" cy="237.5" r="7.5" transform="rotate(-180 381.5 237.5)" fill="#323238"/>
<circle cx="359.5" cy="237.5" r="7.5" transform="rotate(-180 359.5 237.5)" fill="#323238"/>
<circle cx="337.5" cy="237.5" r="7.5" transform="rotate(-180 337.5 237.5)" fill="#323238"/>
<circle cx="425.5" cy="214.5" r="7.5" transform="rotate(-180 425.5 214.5)" fill="#323238"/>
<circle cx="403.5" cy="214.5" r="7.5" transform="rotate(-180 403.5 214.5)" fill="#323238"/>
<circle cx="381.5" cy="214.5" r="7.5" transform="rotate(-180 381.5 214.5)" fill="#323238"/>
<circle cx="359.5" cy="214.5" r="7.5" transform="rotate(-180 359.5 214.5)" fill="#323238"/>
<circle cx="425.5" cy="191.5" r="7.5" transform="rotate(-180 425.5 191.5)" fill="#323238"/>
<circle cx="403.5" cy="191.5" r="7.5" transform="rotate(-180 403.5 191.5)" fill="#323238"/>
<circle cx="381.5" cy="191.5" r="7.5" transform="rotate(-180 381.5 191.5)" fill="#323238"/>
<circle cx="425.5" cy="145.5" r="7.5" transform="rotate(-180 425.5 145.5)" fill="#323238"/>
<circle cx="403.5" cy="145.5" r="7.5" transform="rotate(-180 403.5 145.5)" fill="#323238"/>
<circle cx="381.5" cy="145.5" r="7.5" transform="rotate(-180 381.5 145.5)" fill="#323238"/>
<circle cx="425.5" cy="122.5" r="7.5" transform="rotate(-180 425.5 122.5)" fill="#323238"/>
<circle cx="403.5" cy="122.5" r="7.5" transform="rotate(-180 403.5 122.5)" fill="#323238"/>
<circle cx="381.5" cy="122.5" r="7.5" transform="rotate(-180 381.5 122.5)" fill="#323238"/>
<circle cx="425.5" cy="168.5" r="7.5" transform="rotate(-180 425.5 168.5)" fill="#323238"/>
<circle cx="403.5" cy="168.5" r="7.5" transform="rotate(-180 403.5 168.5)" fill="#323238"/>
<circle cx="381.5" cy="168.5" r="7.5" transform="rotate(-180 381.5 168.5)" fill="#323238"/>
<circle cx="425.5" cy="30.5" r="7.5" transform="rotate(-180 425.5 30.5)" fill="#323238"/>
<circle cx="403.5" cy="30.5" r="7.5" transform="rotate(-180 403.5 30.5)" fill="#323238"/>
<circle cx="381.5" cy="30.5" r="7.5" transform="rotate(-180 381.5 30.5)" fill="#323238"/>
<circle cx="425.5" cy="53.5" r="7.5" transform="rotate(-180 425.5 53.5)" fill="#323238"/>
<circle cx="403.5" cy="53.5" r="7.5" transform="rotate(-180 403.5 53.5)" fill="#323238"/>
<circle cx="381.5" cy="53.5" r="7.5" transform="rotate(-180 381.5 53.5)" fill="#323238"/>
<circle cx="425.5" cy="7.5" r="7.5" transform="rotate(-180 425.5 7.5)" fill="#323238"/>
<circle cx="403.5" cy="7.5" r="7.5" transform="rotate(-180 403.5 7.5)" fill="#323238"/>
<circle cx="381.5" cy="7.5" r="7.5" transform="rotate(-180 381.5 7.5)" fill="#323238"/>
<circle cx="425.5" cy="76.5" r="7.5" transform="rotate(-180 425.5 76.5)" fill="#323238"/>
<circle cx="403.5" cy="76.5" r="7.5" transform="rotate(-180 403.5 76.5)" fill="#323238"/>
<circle cx="381.5" cy="76.5" r="7.5" transform="rotate(-180 381.5 76.5)" fill="#323238"/>
<circle cx="425.5" cy="99.5" r="7.5" transform="rotate(-180 425.5 99.5)" fill="#323238"/>
<circle cx="403.5" cy="99.5" r="7.5" transform="rotate(-180 403.5 99.5)" fill="#323238"/>
<circle cx="381.5" cy="99.5" r="7.5" transform="rotate(-180 381.5 99.5)" fill="#323238"/>
<circle cx="249.5" cy="283.5" r="7.5" transform="rotate(-180 249.5 283.5)" fill="#323238"/>
<circle cx="227.5" cy="283.5" r="7.5" transform="rotate(-180 227.5 283.5)" fill="#323238"/>
<circle cx="205.5" cy="283.5" r="7.5" transform="rotate(-180 205.5 283.5)" fill="#323238"/>
<circle cx="183.5" cy="283.5" r="7.5" transform="rotate(-180 183.5 283.5)" fill="#323238"/>
<circle cx="249.5" cy="260.5" r="7.5" transform="rotate(-180 249.5 260.5)" fill="#323238"/>
<circle cx="227.5" cy="260.5" r="7.5" transform="rotate(-180 227.5 260.5)" fill="#323238"/>
<circle cx="205.5" cy="260.5" r="7.5" transform="rotate(-180 205.5 260.5)" fill="#323238"/>
<circle cx="183.5" cy="260.5" r="7.5" transform="rotate(-180 183.5 260.5)" fill="#323238"/>
<circle cx="161.5" cy="283.5" r="7.5" transform="rotate(-180 161.5 283.5)" fill="#323238"/>
<circle cx="139.5" cy="283.5" r="7.5" transform="rotate(-180 139.5 283.5)" fill="#323238"/>
<circle cx="117.5" cy="283.5" r="7.5" transform="rotate(-180 117.5 283.5)" fill="#323238"/>
<circle cx="95.5" cy="283.5" r="7.5" transform="rotate(-180 95.5 283.5)" fill="#323238"/>
<circle cx="73.5" cy="260.5" r="7.5" transform="rotate(-180 73.5 260.5)" fill="#323238"/>
<circle cx="51.5" cy="260.5" r="7.5" transform="rotate(-180 51.5 260.5)" fill="#323238"/>
<circle cx="29.5" cy="260.5" r="7.5" transform="rotate(-180 29.5 260.5)" fill="#323238"/>
<circle cx="7.5" cy="260.5" r="7.5" transform="rotate(-180 7.5 260.5)" fill="#323238"/>
<circle cx="73.5" cy="283.5" r="7.5" transform="rotate(-180 73.5 283.5)" fill="#323238"/>
<circle cx="51.5" cy="283.5" r="7.5" transform="rotate(-180 51.5 283.5)" fill="#323238"/>
<circle cx="29.5" cy="283.5" r="7.5" transform="rotate(-180 29.5 283.5)" fill="#323238"/>
<circle cx="7.5" cy="283.5" r="7.5" transform="rotate(-180 7.5 283.5)" fill="#323238"/>
<circle cx="161.5" cy="260.5" r="7.5" transform="rotate(-180 161.5 260.5)" fill="#323238"/>
<circle cx="139.5" cy="260.5" r="7.5" transform="rotate(-180 139.5 260.5)" fill="#323238"/>
<circle cx="117.5" cy="260.5" r="7.5" transform="rotate(-180 117.5 260.5)" fill="#323238"/>
<circle cx="95.5" cy="260.5" r="7.5" transform="rotate(-180 95.5 260.5)" fill="#323238"/>
</svg>
