<svg width="433" height="314" viewBox="0 0 433 314" fill="none" xmlns="http://www.w3.org/2000/svg">
<circle cx="7.5" cy="7.5" r="7.5" fill="#323238"/>
<circle cx="29.5" cy="7.5" r="7.5" fill="#323238"/>
<circle cx="51.5" cy="7.5" r="7.5" fill="#323238"/>
<circle cx="73.5" cy="7.5" r="7.5" fill="#323238"/>
<circle cx="95.5" cy="7.5" r="7.5" fill="#323238"/>
<circle cx="117.5" cy="7.5" r="7.5" fill="#323238"/>
<circle cx="139.5" cy="7.5" r="7.5" fill="#323238"/>
<circle cx="161.5" cy="7.5" r="7.5" fill="#323238"/>
<circle cx="7.5" cy="30.5" r="7.5" fill="#323238"/>
<circle cx="29.5" cy="30.5" r="7.5" fill="#323238"/>
<circle cx="51.5" cy="30.5" r="7.5" fill="#323238"/>
<circle cx="73.5" cy="30.5" r="7.5" fill="#323238"/>
<circle cx="95.5" cy="30.5" r="7.5" fill="#323238"/>
<circle cx="117.5" cy="30.5" r="7.5" fill="#323238"/>
<circle cx="139.5" cy="30.5" r="7.5" fill="#323238"/>
<circle cx="161.5" cy="30.5" r="7.5" fill="#323238"/>
<circle cx="7.5" cy="53.5" r="7.5" fill="#323238"/>
<circle cx="29.5" cy="53.5" r="7.5" fill="#323238"/>
<circle cx="51.5" cy="53.5" r="7.5" fill="#323238"/>
<circle cx="73.5" cy="53.5" r="7.5" fill="#323238"/>
<circle cx="95.5" cy="53.5" r="7.5" fill="#323238"/>
<circle cx="7.5" cy="76.5" r="7.5" fill="#323238"/>
<circle cx="29.5" cy="76.5" r="7.5" fill="#323238"/>
<circle cx="51.5" cy="76.5" r="7.5" fill="#323238"/>
<circle cx="73.5" cy="76.5" r="7.5" fill="#323238"/>
<circle cx="7.5" cy="99.5" r="7.5" fill="#323238"/>
<circle cx="29.5" cy="99.5" r="7.5" fill="#323238"/>
<circle cx="51.5" cy="99.5" r="7.5" fill="#323238"/>
<circle cx="7.5" cy="145.5" r="7.5" fill="#323238"/>
<circle cx="29.5" cy="145.5" r="7.5" fill="#323238"/>
<circle cx="51.5" cy="145.5" r="7.5" fill="#323238"/>
<circle cx="7.5" cy="168.5" r="7.5" fill="#323238"/>
<circle cx="29.5" cy="168.5" r="7.5" fill="#323238"/>
<circle cx="51.5" cy="168.5" r="7.5" fill="#323238"/>
<circle cx="7.5" cy="260.5" r="7.5" fill="#323238"/>
<circle cx="29.5" cy="260.5" r="7.5" fill="#323238"/>
<circle cx="51.5" cy="260.5" r="7.5" fill="#323238"/>
<circle cx="7.5" cy="237.5" r="7.5" fill="#323238"/>
<circle cx="29.5" cy="237.5" r="7.5" fill="#323238"/>
<circle cx="51.5" cy="237.5" r="7.5" fill="#323238"/>
<circle cx="7.5" cy="283.5" r="7.5" fill="#323238"/>
<circle cx="29.5" cy="283.5" r="7.5" fill="#323238"/>
<circle cx="51.5" cy="283.5" r="7.5" fill="#323238"/>
<circle cx="7.5" cy="214.5" r="7.5" fill="#323238"/>
<circle cx="29.5" cy="214.5" r="7.5" fill="#323238"/>
<circle cx="51.5" cy="214.5" r="7.5" fill="#323238"/>
<circle cx="7.5" cy="191.5" r="7.5" fill="#323238"/>
<circle cx="29.5" cy="191.5" r="7.5" fill="#323238"/>
<circle cx="51.5" cy="191.5" r="7.5" fill="#323238"/>
<circle cx="183.5" cy="7.5" r="7.5" fill="#323238"/>
<circle cx="205.5" cy="7.5" r="7.5" fill="#323238"/>
<circle cx="227.5" cy="7.5" r="7.5" fill="#323238"/>
<circle cx="249.5" cy="7.5" r="7.5" fill="#323238"/>
<circle cx="183.5" cy="30.5" r="7.5" fill="#323238"/>
<circle cx="205.5" cy="30.5" r="7.5" fill="#323238"/>
<circle cx="227.5" cy="30.5" r="7.5" fill="#323238"/>
<circle cx="249.5" cy="30.5" r="7.5" fill="#323238"/>
<circle cx="271.5" cy="7.5" r="7.5" fill="#323238"/>
<circle cx="293.5" cy="7.5" r="7.5" fill="#323238"/>
<circle cx="315.5" cy="7.5" r="7.5" fill="#323238"/>
<circle cx="337.5" cy="7.5" r="7.5" fill="#323238"/>
<circle cx="359.5" cy="30.5" r="7.5" fill="#323238"/>
<circle cx="381.5" cy="30.5" r="7.5" fill="#323238"/>
<circle cx="403.5" cy="30.5" r="7.5" fill="#323238"/>
<circle cx="425.5" cy="30.5" r="7.5" fill="#323238"/>
<circle cx="359.5" cy="7.5" r="7.5" fill="#323238"/>
<circle cx="381.5" cy="7.5" r="7.5" fill="#323238"/>
<circle cx="403.5" cy="7.5" r="7.5" fill="#323238"/>
<circle cx="425.5" cy="7.5" r="7.5" fill="#323238"/>
<circle cx="271.5" cy="30.5" r="7.5" fill="#323238"/>
<circle cx="293.5" cy="30.5" r="7.5" fill="#323238"/>
<circle cx="315.5" cy="30.5" r="7.5" fill="#323238"/>
<circle cx="337.5" cy="30.5" r="7.5" fill="#323238"/>
<circle cx="7.5" cy="121.5" r="7.5" fill="#323238"/>
<circle cx="29.5" cy="121.5" r="7.5" fill="#323238"/>
<circle cx="51.5" cy="121.5" r="7.5" fill="#323238"/>
</svg>
